<svg xmlns="http://www.w3.org/2000/svg" width="204" height="321" fill="none" viewBox="0 0 204 321">
	<path fill="#F37021" d="M191.639 63.919c-8.584 6.386-21.703 3.465-30.995.375-11.934-3.977-22.914-8.702-35.709-9.273a112.198 112.198 0 00-34.499 3.627c-1.704.477-5.66 2.64-7.05 2.052a79.86 79.86 0 01-2.113-3.516 104.227 104.227 0 01-5.763-12.108C55.341 64.66 37.738 89.684 31.32 117.305c-3.205 13.76-3.12 26.54 2.268 39.721a73.404 73.404 0 0022.393 30.082 55.174 55.174 0 0029.376 11.512c5.711.442 11.329-.366 16.981-1.073 3.486-.434 7.672.323 6.623 4.581-1.509 6.054-15.028 9.868-21.115 14.704-9.053 7.212-12.915 12.415-15.557 23.066-2.216 8.949-1.338 9.188-1.492 18.375-.179 10.864 1.228 16.629 1.39 27.485.093 6.726.366 12.252.494 17.881.085 3.814-.316 9.749 3.665 11.877 3.981 2.129 9.105 1.703 13.427.801 1.406-.298 2.037-.809 2.19.911.051.596 3.777 2.001 4.493 2.146.415.175.846.309 1.287.4-4.45-12.244-4.646-26.157-1.577-38.742 1.313-5.355 2.694-11.069 5.635-15.828 1.295-2.086 3.486-4.258 5.967-2.359a12.68 12.68 0 013.751 3.406c.153 1.856.758 13.709 1.866 13.76 1.961.076 1.612-2.444 2.029-4.147a48.113 48.113 0 012.319-7.271c1.389-3.296 5.115-9.366 9.215-5.663 1.236 1.099 2.327 2.878 4.305 8.328-.154-2.299-.401-14.015.946-15.88 6.607-9.153 14.33-19.72 20.459-36.332 1.602-4.325 2.174-18.638 2.864-28.856.154-2.231.119-5.415.691-6.607a15.048 15.048 0 014.398-5.33c3.223-2.555 6.598-4.964 9.872-7.467 17.049-13.028 29.17-27.664 32.069-49.709 2.463-18.902-.154-40.955-10.912-57.158z"/>
	<path fill="#AA462A" d="M127.228 76.137c-21.371-5.109-47.302-2.112-64.99 11.844-16.81 13.266-25.352 35.48-24.628 56.715.426 12.483 5.268 24.361 14.594 33.029 9.803 9.11 24.167 8.429 32.393 3.184.435-.272 40.168-20.197 45.836-22.317 3.649-1.371 7.323.188 7.758 0 17.492-7.757 33.748-25.22 30.552-45.783-3.24-20.699-22.428-32.108-41.515-36.672z"/>
	<path fill="#811517" d="M145.027 152.001c12.438-9.953 20.57-25.833 17.373-41.466-3.725-18.187-24.601-25.876-40.474-29.213-34.456-7.246-73.737 16.807-79.755 52.441-2.114 12.499.204 23.628 6.615 34.85 7.501 13.147 22.632 14.748 35.42 11.921l1.082-.477c5.114 2.554 10.425 4.172 14.312 2.937 3.231-.527 7.817-5.96 9.002-8.514l-2.276-.145c11.858.911 19.308-1.975 22.65-7.901a23.102 23.102 0 002.804-7.57c4.552-2.095 10.264-4.479 13.247-6.863zm-3.333 156.788c-.434-2.767-2.02-3.67-3.776-5.815-1.458-1.78-3.776-3.048-4.151-5.433-.853-5.355-1.194-10.907-1.791-16.314-.383-3.405-2.011-10.907-6.444-10.907-5.021 0-7.774 7.868-8.814 11.614-.708 2.555-1.168 5.186-1.663 7.791-.989-5.415-2.719-22.725-10.314-17.259-3.896 2.801-5.013 8.353-5.831 12.772a71.128 71.128 0 00-1.458 12.772 58.29 58.29 0 002.216 16.126c.273.954 1.705 5.68 2.558 6.182 1.159.69 3.486.358 4.825.289 11.653-.57 11.227-3.124 13.503-4.402 2.131 1.133 6.163 1.848 9.087 1.848a21.26 21.26 0 008.524-1.703c2.677-1.175 3.922-5.023 3.529-7.561z"/>
	<path fill="#AA462A" d="M73.456 307.156c-.196-5.595-.964-10.363-.665-15.957a31.525 31.525 0 01-5.626 5.705 39.169 39.169 0 01-5.789 2.75c-1.005 7.076 1.023 12.031 6.769 16.306 1.338.783 4.62-1.797 5.404-2.963.452-1.252-.034-4.292-.093-5.841z"/>
	<path fill="#811517" d="M62.093 299.219a55.22 55.22 0 01-14.663 2.733c-5.592.187-11.081-.571-16.682.213-6.12.851-12.07 2.231-16.87 6.147-3.879 3.168-11.824 8.013-12.122 8.634 1.398 1.618 2.148 1.865 4.467 1.993 4.8.255 9.377-1.703 14.04-2.402 6.07-.936 12.224-.434 18.302.23 10.383 1.141 20.612 2.555 30.688-.851-6.41-3.432-9.47-9.605-7.16-16.697z"/>
	<path fill="#AA462A" d="M111.185 265.332c-4.347-7.11-8.951-2.981-11.747 3.652-2.472 5.875-3.861 12.347-4.935 18.63a65.316 65.316 0 00-.29 21.048 53.178 53.178 0 002.387 9.596c.946.945 5.37 1.856 5.737 1.891a62.397 62.397 0 01-2.651-37.099c.784-3.405 4.935-15.079 10.229-9.57 3.001 3.133 3.001 6.011 3.529 7.604.239.706-.69-9.613-.741-10.32-.231-2.742-.069-3.057-1.518-5.432zm19.496 2.655c-.265-2.222-3.146-6.079-5.456-6.59-3.052-.664-5.336 2.554-6.632 4.794-2.191 3.84-4.603 10.975-4.603 15.326 0 .571 1.312 8.872 1.278 9.085.282-3.687 2.387-10.532 3.163-12.627 1.014-2.759 3.086-6.105 4.654-6.812 4.416-2.009 5.967 1.414 8.806 7.663-.281-4.657-1.048-9.408-1.21-10.839z"/>
	<path fill="#811517" d="M188.085 58.878a120.023 120.023 0 00-5.405-7.306 134.323 134.323 0 00-26.826-25.927c-17.373-12.508-37.892-20.111-58.88-23.84C91.57.85 85.706.076 80.319 1.515c-1.1.298-1.552 1.822-.23 1.822 1.885.055 3.763.278 5.609.664a94.299 94.299 0 0116.597 4.394 120.423 120.423 0 0144.455 29.512 122.877 122.877 0 0115.737 19.464 30.119 30.119 0 013.861 7.927c1.705 1.958 7.919 1.865 10.613 1.873 4.612 0 9.906-.196 13.853-2.87.988-1.362-1.68-3.916-2.728-5.423z"/>
	<path fill="#AA462A" d="M184.837 54.398a32.527 32.527 0 01-19.973 7.17 20.793 20.793 0 011.458 3.73c1.705 1.957 7.919 1.864 10.613 1.872 4.611 0 9.905-.195 13.852-2.87.989-1.361-1.654-3.916-2.702-5.423a150.667 150.667 0 00-3.248-4.479z"/>
	<path fill="#811517" d="M12.642 52.4a36.78 36.78 0 00-7.757 4.895c2.165.23 5.915-.4 6.7-.4 4.85 0 9.633 1.277 14.253 2.605 4.62 1.329 9.061 2.76 13.486 4.454 4.424 1.694 9.683 3.312 13.392 6.266l.639.511a173.398 173.398 0 0114.892-18.05c-16.631-6.548-39.477-7.69-55.605-.282z"/>
	<path fill="#FECF8D" d="M49.519 68.313a176.23 176.23 0 00-23.306-8.456c-6.249-1.856-19.325-6.173-23.818 1.065-4.569 7.374-.196 20.265 1.748 27.894a194.824 194.824 0 0024.116 55.396c2.25-.179 1.048-2.436.852-3.951a43.32 43.32 0 01-.051-8.668 112.158 112.158 0 012.48-15.054 108.002 108.002 0 019.864-26.395 163.671 163.671 0 018.439-14.288c.537-.851 3.81-4.427 3.623-5.279-.188-.851-3.265-1.95-3.947-2.264zm76.993-46.295C104.792 8.462 93.514 6.453 84.452 4.844c-3.47-.588-7.39-.954-10.033 1.251-2.336 1.959-3.52 5.824-3.52 11.512 0 20.435 10.843 38.563 13.11 42.122a58.874 58.874 0 0113.17-3.764c10.835-1.839 22.275-2.997 33.246-1.788 10.187 1.124 18.754 5.56 28.387 8.583a135.05 135.05 0 006.214 1.822c-3.819-10.899-24.303-33.692-38.514-42.564z"/>
	<path fill="#F37021" d="M124.952 96.862c-17.825-.851-26.835 31.436-9.812 46.924 0 0 7.016-6.25 12.54-9.562a88.624 88.624 0 0111.568-5.653c4.262-11.717-.955-31.062-14.296-31.709zm-73.055 39.636c-8.524 10.328.614 29.758 12.165 33.104l7.979-4.18 12.693-4.632c-4.86-19.133-23.264-35.898-32.837-24.292z"/>
	<path fill="#00B1E0" d="M122.753 103.876c-17.612 2.87-18.021 30.185-7.672 39.9l12.241-9.077 10.656-6.045c2.156-13.436-3.581-26.702-15.225-24.778zm-65.076 36.265c-11.449 6.412-4.714 22.624 6.257 29.299l11.832-5.109 9.274-2.128c-1.824-9.46-14.9-29.044-27.363-22.062z"/>
	<path fill="#000" d="M118.491 124.107c-2.447-6.76-.06-12.031 3.861-13.444 3.922-1.414 9.309 1.056 11.747 7.816 2.438 6.761.929 13.496-3.41 15.054-4.339 1.558-9.726-2.674-12.198-9.426z"/>
	<path fill="#fff" d="M118.644 122.94a2.617 2.617 0 11-4.678-2.133 2.62 2.62 0 012.7-1.042 2.645 2.645 0 011.978 3.175z"/>
	<path fill="#000" d="M63.84 159.332c-4.262-5.815-3.631-11.435-.443-13.777 3.188-2.341 8.9-1.345 13.17 4.471 4.27 5.815 4.876 12.627 1.364 15.198-3.512 2.572-9.82-.042-14.091-5.892z"/>
	<path fill="#fff" d="M57.2 154.726a2.324 2.324 0 002.658 2.407 2.329 2.329 0 001.92-1.719 2.32 2.32 0 00-.845-2.432 2.33 2.33 0 00-1.261-.469 2.361 2.361 0 00-2.473 2.213z"/>
	<path fill="#AA462A" d="M112.592 306.874c3.981 2.231 5.021 7.357 4.381 11.495 0 .247-1.526.715-1.304-.204.784-3.875.119-8.515-3.41-10.754-.349-.264-.085-.775.333-.537zm-8.09.655c3.273 3.065 3.606 7.978 3.299 12.065 0 .851-1.594.903-1.313-.102.495-4.062.46-8.455-2.455-11.537-.273-.35.128-.767.469-.426zm29.75-2.196c4.646.945 6.138 6.471 5.269 10.567 0 .264-1.33-.162-1.271-.358.989-3.406-.187-8.676-4.091-9.579-.384-.128-.392-.707.093-.63zm-6.623 1.054c4.893 1.397 5.618 7.825 3.41 11.699-.094.256-1.279-.425-1.16-.621 2.106-3.406 1.782-9.026-2.463-10.473-.401-.188-.273-.758.213-.605z"/>
	<path fill="#780708" d="M1.483 317.313c1.27 2.307 5.499 2.086 7.587 1.967 4.927-.264 9.496-2.342 14.372-2.802 6.232-.596 12.702.647 18.874 1.354 8.66.988 18.268 1.933 26.656-1.149 1.875-.69 4.552-1.959 5.43-3.943.358-.791-.853-1.481-1.177-.681-.852 1.856-3.477 2.895-5.208 3.525-7.996 2.946-17.467 1.78-25.701.852-5.703-.622-11.082-1.286-16.419-1.133a45.966 45.966 0 00-10.297 1.865c-1.5.4-6.215 1.541-9.59 1.345-1.645-.093-3.316-.536-3.904-1.592-.41-.749-1.032-.392-.623.358v.034z"/>
	<path fill="#780708" d="M2.225 316.155c1.296-.52 4.381-2.87 6.07-4.079 3.358-2.418 6.35-4.879 10.4-6.973 4.048-2.095 12.786-3.849 19.103-3.968 6.35.153 11.388 1.124 18.532-.434 7.144-1.559 11.849-4.581 15.694-9.367.741-1.089 1.781-.579.852.673-4.91 5.79-9.488 8.753-18.37 10.218-7.851 1.311-10.28-.179-16.896 0a50.963 50.963 0 00-18.328 3.516c-3.605 1.797-7.135 4.513-10.63 6.982a40.719 40.719 0 01-5.404 3.619c-2.319 1.175-2.353.349-1.023-.187zm65.562-264.03c-8.968-4.59-20.774-5.245-30.586-5.177-12.437.077-26.06 2.912-34.763 12.457-.213.238-.085 1.353.222 1.013 8.635-9.545 22.163-11.972 34.507-12.193 10.152-.187 21.013 1.124 30.466 5.007.35.144.435-.962.154-1.107zm124.441 11.308c-12.122-19.107-28.225-35.387-48.053-46.515A141.882 141.882 0 0096.421.85C89.695-.154 79.014-1.338 73.643 4.256c-1.492 1.559.52 2.027 1.202 1.2 5.55-6.215 18.507-3.55 25.42-2.281a144.075 144.075 0 0145.265 16.604c18.575 10.702 33.706 26.582 45.18 44.556.614.963 2.157.077 1.543-.902h-.025z"/>
	<path fill="#DC661E" d="M75.075 45.008C60.584 58.093 48.155 75.37 39.272 92.689a98.994 98.994 0 00-8.993 25.876c-1.296 6.599-2.685 13.47-2.054 20.163 2.284 24.053 19.222 48.49 41.83 57.371a55.568 55.568 0 0018.975 3.593 65.6 65.6 0 0011.031-.783c3.06-.435 7.672-2.061 8.124 2.631.238 2.358-1.433 3.559-3.18 4.666-7.587 4.776-15.787 7.927-22.48 14.117-5.702 5.287-9.3 12.772-11.081 20.29-2.216 9.494-1.364 19.814-.853 29.435.563 10.115 1.04 20.222 1.5 30.337.197 4.181-.076 12.84 2.9 14.944 4.082 2.878 12.07 2.792 16.596 1.217.853-.289.478-1.601-.358-1.311-3.41 1.183-7.373.851-10.851.272-2.43-.434-5.047-.962-5.772-3.584a33.179 33.179 0 01-.69-6.812c-.588-10.592-.852-21.193-1.517-31.776-.742-11.989-2.132-25.152 1.858-36.724a37.722 37.722 0 015.02-9.647c4.493-6.292 10.742-10.881 18.056-14.883 2.873-1.567 8.857-4.258 11.346-7.17a4.538 4.538 0 00.997-4.47c-.571-2.265-2.02-3.516-4.688-3.618-2.2-.077-5.2.553-7.365.851-2.501.299-5.017.45-7.536.451-16.197.154-30.893-7.263-41.642-19.089a78.179 78.179 0 01-15.49-26.626 51.677 51.677 0 01-2.488-25.756A111.034 111.034 0 0145.81 84.081c8.32-13.751 18.396-27.145 30.057-38.307.512-.486-.247-1.235-.767-.767h-.026z"/>
	<path fill="#DC661E" d="M165.375 65.647c-2.719-10.414-24.141-34.493-38.846-43.68C104.851 8.403 93.531 6.394 84.461 4.784c-3.478-.63-7.416-.962-10.076 1.27-2.353 1.966-3.546 5.866-3.546 11.553 0 22.726 13.4 42.573 13.537 42.795l-1.407.953c-.136-.195-13.835-20.486-13.835-43.748 0-6.317 1.364-10.524 4.151-12.857 3.222-2.699 7.809-2.299 11.449-1.651 9.24 1.643 20.706 3.712 42.716 17.429 14.96 9.34 36.8 33.965 39.63 44.693l-1.653.426h-.052zm-111.79 4.334c-2.438-2.103-5.848-3.295-8.703-4.538a145.738 145.738 0 00-17.459-6.224c-6.674-1.907-22.308-6.718-26.23 2.197C-.793 65.98.153 71.838.853 76.572c1.193 8.319 3.563 16.492 6.112 24.488 5.319 16.697 13.187 31.648 22.615 46.404.52.801 1.799.06 1.287-.749-8.524-13.274-15.88-26.744-21.038-41.662a200.768 200.768 0 01-6.18-21.389C2.267 77.483.894 70.756 1.934 64.447c1.799-10.941 19.189-5.262 25.923-3.338a153.198 153.198 0 0115.694 5.543c2.898 1.175 6.58 2.325 9.095 4.257.657.503 1.594-.366.938-.936v.008zm74.112 182.901c-3.606 5.254-8.942 7.953-14.918 9.698-1.014.29-.571 1.899.435 1.575 6.257-2.043 11.321-5.406 14.909-11.026.179-.272-.247-.511-.426-.247z"/>
	<path fill="#AA462A" d="M102.448 319.722c-4.118-9.136-5.192-20.588-3.547-30.516 1.015-4.947 1.501-10.268 4.459-14.313 1.347-1.899 3.81-3.84 5.796-2.188 1.867 1.464 3.163 4.879 4.16 7.961.137.426.299-1.379.145-1.814-.776-2.435-1.611-5.057-3.793-6.854-2.609-2.12-5.763.358-7.101 2.308-3.23 4.359-3.75 9.749-4.85 14.704a57.716 57.716 0 003.725 30.457c.196.332 1.142.553 1.006.255z"/>
	<path fill="#AA462A" d="M97.418 318.828c-3.793-10.763-4.032-23.075-1.568-34.322 1.27-5.637 2.463-11.538 5.021-16.638 1.321-2.35 3.307-5.253 5.967-5.032 2.557.639 4.586 4.53 5.967 8.855.162.485.059-1.992-.137-2.486-1.04-2.623-2.395-6.258-5.72-7.238-3.588-.195-5.481 3.057-6.947 5.424-2.762 5.373-3.955 11.137-5.336 16.868-2.319 11.545-2.03 23.772 2.088 34.961.196.383.836-.052.665-.392zm16.512-36.426c1.407-5.372 2.557-11.111 5.285-15.854 1.296-2.231 3.325-4.904 5.823-4.444 2.412.774 4.108 3.865 5.668 7.731a6.26 6.26 0 00-.076-1.941c-1.074-2.555-2.234-5.578-5.354-6.744-3.537-.588-5.634 2.554-7.101 4.785-2.753 5.203-3.41 10.047-4.765 15.565-.034.204.477 1.098.52.902z"/>
	<path fill="#AA462A" d="M115.533 291.097c1.168-5.96 2.003-12.372 5.686-17.14 1.577-2.486 4.79-4.257 6.717-1.558 1.807 2.29 2.702 5.33 3.495 8.259.068.264.852.093.742-.179-.751-2.997-1.518-6.088-3.496-8.719-.954-1.277-2.872-2.282-4.603-1.601a8.888 8.888 0 00-3.81 3.066c-3.828 5.262-4.433 11.733-5.49 17.753-.034.221.725.323.759.119z"/>
	<path fill="#780708" d="M61.462 299.423c-2.132 6.471.272 14.066 7.373 16.986.384.162.555-.417.265-.621-4.135-2.989-7.118-6.182-7.408-11.478a30.737 30.737 0 01.273-4.819c0-.298-.418-.332-.503-.068z"/>
	<path fill="#AA462A" d="M137.245 78.521c-19.922-7.595-43.97-6.582-63.355 2.043-18.932 8.43-30.782 27-35.257 46.686-3.46 15.267-1.304 32.739 8.022 45.638 8.524 11.759 24.942 15.71 37.456 8.566.418-.23.051-.852-.375-.63-11.38 5.764-24.78 2.282-33.552-6.429-8.26-8.199-11.295-22.01-11.457-33.207-.316-22.138 12.13-45.655 31.37-56.75 20.374-11.767 48.394-12.064 69.824-3.014 20.459 8.66 34.414 30.006 24.542 51.837-4.995 11.069-15.344 20.35-26.323 25.238.138.209.325.381.545.502 16.572-7.527 30.757-22.989 30.688-42.011-.127-18.843-15.847-32.253-32.128-38.469z"/>
	<path fill="#AA462A" d="M136.75 158.37c15.54-8.123 29.282-26.08 27.117-44.336-2.123-17.88-20.289-27.297-35.803-31.631-21.601-6.046-43.995-2.13-61.965 11.375-16.87 12.67-27.278 32.526-25.454 53.787.852 10.217 4.467 20.767 11.934 28.098 8.797 8.421 20.732 8.293 31.626 4.845a.29.29 0 10-.154-.562c-9.376 2.418-19.52 2.239-27.67-3.406-6.82-4.76-10.639-12.959-12.65-20.81-5.848-22.87 4.552-45.357 22.351-59.764 19.419-15.726 44.788-18.025 67.872-9.97 9.377 3.286 18.464 8.65 24.082 17.029 6.572 9.826 5.336 21.814.247 31.93-4.612 9.161-12.693 18.034-21.882 22.759-.392.196 0 .792.349.588v.068z"/>
	<path fill="#DC661E" d="M84.103 61.61a63.761 63.761 0 0116.554-4.359c11.935-1.762 24.721-2.554 36.579-.068 4.714.988 9.07 2.955 13.537 4.675a113.428 113.428 0 0017.279 5.219c7.144 1.516 18.532 2.205 24.61-2.903a6.096 6.096 0 00-.852-1.38c-4.544 3.508-10.477 3.661-14.688 3.661-5.66 0-11.32-1.49-16.699-3.082-9.803-2.895-18.601-7.663-28.856-8.957-11.082-1.422-22.786-.256-33.79 1.54-5.01.772-9.9 2.18-14.552 4.19-1.006.443-.137 1.907.852 1.465h.026zm28.54 193.657c-1.603 13.623.852 27.306 2.301 40.785.665 3.286.052 7.007 2.652 10.03a8.213 8.213 0 012.225 8.727c-.964 2.997-4.791 3.832-7.911 4.402a42.399 42.399 0 01-10.025.154c-3.23-.307-6.922-.784-9.121-2.751-1.466-2.554-1.893-6.215-2.447-9.459-.98-6.71-1.705-13.487-2.344-20.257-.64-6.769-1.603-23.372-1.705-24.871-.12-1.881 0-3.695 1.134-5.151 1.799-2.835 3.938-5.492 5.967-8.242.733-.988 0-1.507-.742-.545-2.037 2.716-4.202 5.364-6.07 8.268a7.374 7.374 0 00-1.61 5.321c.085 1.533 1.287 18.519 1.832 25.314a357.038 357.038 0 002.217 20.359c.63 3.405.742 6.752 2.71 10.166 3.001 2.648 6.641 2.852 10.043 3.287a43.65 43.65 0 0010.374-.239c3.18-.638 7.51-1.396 8.925-5.304a9.532 9.532 0 00-2.515-9.988c-2.131-2.163-1.824-6.165-2.429-9.366-1.552-13.504-4.066-27.042-2.558-40.615.06-.936-.861-.945-.903-.025z"/>
	<path fill="#DC661E" d="M134.96 299.099c-1.705-5.96-1.62-13.053-2.242-19.217a554.655 554.655 0 01-1.245-14.313c-.323-4.513-.358-7.11 2.123-10.95 5.865-9.094 12.233-17.302 16.631-27.306 3.172-7.221 4.177-14.526 4.791-22.308.347-4.462.597-8.929.75-13.402.154-4.607-.11-7.536 3.487-11.069 6.027-5.893 13.528-10.405 19.836-16.033 14.586-12.943 23.392-29.027 24.645-48.644 1.125-17.413-1.458-37.643-11.559-52.433-.495-.724-1.705 0-1.177.681 8.141 11.92 10.997 27.417 11.517 41.543.443 12.005-.946 23.96-6.189 34.91-4.134 8.599-10.494 15.922-17.458 22.359-6.232 5.756-13.298 10.447-19.734 15.939-2.004 1.703-4.399 4.07-4.672 6.863-.375 3.695-.111 7.544-.307 11.273-.426 8.472-.724 17.251-3.41 25.365-3.623 10.805-10.178 20.086-16.708 29.282-1.551 2.18-4.151 5.211-4.262 8.072-.128 5.5.708 11.162 1.211 16.629a688.04 688.04 0 001.704 16.177c.265 2.248.299 4.777.921 6.974a.684.684 0 001.238.138.683.683 0 00.075-.504l.034-.026z"/>
	<path fill="#DC661E" d="M119.846 316.743c5.498 2.315 16.086 3.039 20.766-1.525 2.122-2.069 2.054-4.112 1.492-6.982a11.915 11.915 0 00-2.737-5.168c-1.244-1.507-3.563-2.418-4.475-4.147-.409-.774-1.586-.085-1.177.69.853 1.567 2.754 2.555 4.024 3.738 2.762 2.554 4.995 7.91 1.909 10.907-2.361 2.291-7.245 2.555-10.229 2.75a20.576 20.576 0 01-9.223-1.558c-.81-.34-1.16.971-.358 1.312l.008-.017z"/>
	<path fill="#AA462A" d="M139.742 128.357a33.727 33.727 0 001.432-9.528 28.269 28.269 0 00-4.944-16.279 14.752 14.752 0 00-19.836-4.113c-6.82 4.01-9.923 12.542-10.818 19.975-1.159 9.562 1.995 19.328 9.377 25.544a.23.23 0 00.376-.166.234.234 0 00-.052-.158c-10.553-11.281-12.284-31.912 0-42.709 6.479-5.687 15.523-3.618 20.263 3.074a27.337 27.337 0 014.577 14.79 34.448 34.448 0 01-1.125 9.63c-.043.468.75-.06.75-.06zm-54.667 32.338c-2.353-9.085-6.965-17.514-14.143-23.687-4.825-4.138-11.695-6.94-17.415-2.938-13.06 9.136-2.25 32.475 10.485 35.761a.208.208 0 00.15-.031.213.213 0 00-.039-.377c-11.696-4.658-22.07-25.774-9.275-34.714 5.967-4.147 13.443 1.345 17.612 5.415a47.212 47.212 0 0111.943 20.801.352.352 0 00.641.078.348.348 0 00.032-.265l.009-.043z"/>
	<path fill="#560000" d="M108.713 174.054c-.094 0 10.042.153 15.148-3.406 5.763-2.895 7.902-13.155 7.732-12.993.077-.324.793-.213.75.119.153-.247-1.185 10.609-7.672 14.117-5.78 3.9-16.094 2.895-15.966 2.938-.35-.094-.316-.733.008-.775z"/>
	<path fill="#560000" d="M85.1 179.53c-.085-.077 7.826 3.874 12.992 3.022 5.327-.374 10.297-8.31 10.067-8.072.145-.238.801.068.682.332.094-.187-3.998 8.379-10.528 9.205-6.07.851-13.64-3.926-13.554-3.806-.23-.196.068-.767.341-.681zm53.849-21.21c-2.276-1.141-6.956-1.967-8.899.196-.154.17 0 .953.307.911a38.46 38.46 0 013.955-.741 11.304 11.304 0 014.834.766c.272.12.102-.979-.197-1.132z"/>
	<path fill="#560000" d="M88.587 176.83c-2.967.476-6.112 3.661-6.496 6.684-.077.613.852.851 1.142.315a14.789 14.789 0 012.038-3.474 17.163 17.163 0 013.605-2.844.377.377 0 00.147-.465.372.372 0 00-.436-.216zm19.904-1.857c-3.631-1.226-7.518-7.45-8.379-9.604l.852-.349c.853 2.222 4.621 7.986 7.809 9.068l-.299.851.017.034z"/>
	<path fill="#000" d="M138.566 128.791c1.083-7.11.963-15.599-4.083-21.355-4.749-5.424-11.79-5.705-17.902-2.256-12.923 7.305-11.781 30.507-1.5 39.167a.29.29 0 00.409-.409c-7.74-9.562-9.624-26.574-.153-35.676 5.327-5.109 13.869-4.888 18.378.988 3.998 5.219 4.442 13.138 3.598 19.396-.094.689 1.117.851 1.227.162l.026-.017zm-74.419 40.24a27.66 27.66 0 01-11.218-15.054c-2.106-7.033 2.267-14.057 9.803-14.475 10.656-.553 19.223 14.169 22.07 22.777.094.289.605.264.562-.077-1.202-10.975-13.025-26.821-25.573-24.028-6.538 1.456-9.744 7.868-8.985 14.058.912 7.484 6.666 13.785 12.787 17.591.528.332.989-.485.477-.852l.077.06z"/>
	<path fill="#000" d="M115.081 143.649c-.119-.085 6.214-6.812 11.329-9.809 4.85-3.491 13.776-6.096 13.827-5.849.307-.077.434.638.153.741-.077-.222-8.448 2.937-13.179 6.351a72.303 72.303 0 00-11.678 9.239c-.273.17-.64-.426-.452-.673zm-29.989 18.867c0-.357-7.672 1.397-12.037 3.517-4.57 1.703-11.082 5.449-10.869 5.688-.196.153-.707-.358-.528-.554-.17-.289 6.163-4.777 10.826-6.497 4.51-2.162 12.258-3.235 12.3-2.869.273.068.555.656.308.715zm9.615 12.424a234.13 234.13 0 00-33.33 21.065c-.538.469-1.705-.809-1.058-1.285a235.873 235.873 0 0134.098-20.512c1.305-.562 1.578.102.29.732zm23.86-11.734c12.19-5.023 24.585-9.672 37.738-12.014.751-.144.938 1.567.213 1.652-12.854 1.984-25.428 6.369-37.644 11.069-1.33.536-1.628-.119-.307-.707zm-1.457-3.132a227.473 227.473 0 0139.681-18.8c.853-.264 1.211 1.414.444 1.601a225.76 225.76 0 00-39.716 17.881c-1.381.766-1.773.17-.409-.682zm-3.316-1.797c12.607-9.545 25.266-18.851 39.212-26.625.853-.418 1.433 1.217.665 1.524-13.707 7.305-26.767 16.484-39.426 25.739-1.338 1.014-1.798.46-.451-.638zm-21.542 14.269a212.928 212.928 0 00-38.641 17.2c-.674.426-1.577-1.039-.853-1.422a213.834 213.834 0 0139.307-16.552c1.5-.358 1.653.349.187.774zm-1.372-2.365a329.892 329.892 0 00-38.318 10.558c-.69.272-1.287-1.345-.554-1.567a332.64 332.64 0 0138.735-9.783c1.433-.213 1.552.494.137.792zm14.133-10.388c1.33-2.214.529-4.257-2.992-3.959a16.558 16.558 0 00-10.809 5.211c-2.677 2.963-.409 4.844 1.705 4.955 0 0 7.093 1.209 8.039.579.946-.63 4.057-6.786 4.057-6.786z"/>
	<path fill="#fff" d="M91.391 162.629c-1.023-.852 5.652-5.22 6.735-4.011.57.639-1.1 1.482-3.342 2.776-1.398.792-2.54 1.907-3.393 1.235z"/>
</svg>
